<?xml version="1.0" encoding="utf-8"?>
<!-- Generator: Adobe Illustrator 25.0.0, SVG Export Plug-In . SVG Version: 6.00 Build 0)  -->
<svg version="1.1" id="Layer_1" xmlns="http://www.w3.org/2000/svg" xmlns:xlink="http://www.w3.org/1999/xlink" x="0px" y="0px"
	 viewBox="0 0 4000 100" style="enable-background:new 0 0 4000 100;" xml:space="preserve">
<style type="text/css">
	.st0{clip-path:url(#SVGID_2_);fill:#FFF800;}
	.st1{clip-path:url(#SVGID_2_);}
	.st2{fill:none;}
</style>
<g>
	<defs>
		<rect id="SVGID_1_" width="4000" height="100"/>
	</defs>
	<clipPath id="SVGID_2_">
		<use xlink:href="#SVGID_1_"  style="overflow:visible;"/>
	</clipPath>
	<rect y="-3900" class="st0" width="4000" height="4000"/>
	<g class="st1">
		<polygon class="st2" points="2542.4,-3900 0,-1357.6 0,-1275.8 2624.2,-3900 		"/>
		<polygon class="st2" points="2375.8,-3900 0,-1524.2 0,-1442.4 2457.6,-3900 		"/>
		<polygon class="st2" points="1709.1,-3900 0,-2190.9 0,-2109.1 1790.9,-3900 		"/>
		<polygon class="st2" points="42.4,-3900 0,-3857.6 0,-3775.8 124.2,-3900 		"/>
		<polygon class="st2" points="542.4,-3900 0,-3357.6 0,-3275.8 624.2,-3900 		"/>
		<polygon class="st2" points="209.1,-3900 0,-3690.9 0,-3609.1 290.9,-3900 		"/>
		<polygon class="st2" points="1875.8,-3900 0,-2024.2 0,-1942.4 1957.6,-3900 		"/>
		<polygon class="st2" points="2709.1,-3900 0,-1190.9 0,-1109.1 2790.9,-3900 		"/>
		<polygon class="st2" points="1042.4,-3900 0,-2857.6 0,-2775.8 1124.2,-3900 		"/>
		<polygon class="st2" points="1375.8,-3900 0,-2524.2 0,-2442.4 1457.6,-3900 		"/>
		<polygon class="st2" points="1209.1,-3900 0,-2690.9 0,-2609.1 1290.9,-3900 		"/>
		<polygon class="st2" points="2042.4,-3900 0,-1857.6 0,-1775.8 2124.2,-3900 		"/>
		<polygon class="st2" points="375.8,-3900 0,-3524.2 0,-3442.4 457.6,-3900 		"/>
		<polygon class="st2" points="875.8,-3900 0,-3024.2 0,-2942.4 957.6,-3900 		"/>
		<polygon class="st2" points="1542.4,-3900 0,-2357.6 0,-2275.8 1624.2,-3900 		"/>
		<polygon class="st2" points="2209.1,-3900 0,-1690.9 0,-1609.1 2290.9,-3900 		"/>
		<polygon class="st2" points="709.1,-3900 0,-3190.9 0,-3109.1 790.9,-3900 		"/>
		<polygon class="st2" points="1124.2,100 4000,-2775.8 4000,-2857.6 1042.4,100 		"/>
		<polygon class="st2" points="1790.9,100 4000,-2109.1 4000,-2190.9 1709.1,100 		"/>
		<polygon class="st2" points="1457.6,100 4000,-2442.4 4000,-2524.2 1375.8,100 		"/>
		<polygon class="st2" points="1290.9,100 4000,-2609.1 4000,-2690.9 1209.1,100 		"/>
		<polygon class="st2" points="1624.2,100 4000,-2275.8 4000,-2357.6 1542.4,100 		"/>
		<polygon class="st2" points="2290.9,100 4000,-1609.1 4000,-1690.9 2209.1,100 		"/>
		<polygon class="st2" points="2124.2,100 4000,-1775.8 4000,-1857.6 2042.4,100 		"/>
		<polygon class="st2" points="1957.6,100 4000,-1942.4 4000,-2024.2 1875.8,100 		"/>
		<polygon class="st2" points="0,97.2 0,100 2.8,100 		"/>
		<polygon class="st2" points="124.2,100 4000,-3775.8 4000,-3857.6 42.4,100 		"/>
		<polygon class="st2" points="2457.6,100 4000,-1442.4 4000,-1524.2 2375.8,100 		"/>
		<polygon class="st2" points="290.9,100 4000,-3609.1 4000,-3690.9 209.1,100 		"/>
		<polygon class="st2" points="457.6,100 4000,-3442.4 4000,-3524.2 375.8,100 		"/>
		<polygon class="st2" points="790.9,100 4000,-3109.1 4000,-3190.9 709.1,100 		"/>
		<polygon class="st2" points="957.6,100 4000,-2942.4 4000,-3024.2 875.8,100 		"/>
		<polygon class="st2" points="624.2,100 4000,-3275.8 4000,-3357.6 542.4,100 		"/>
		<polygon class="st2" points="3375.8,-3900 0,-524.2 0,-442.4 3457.6,-3900 		"/>
		<polygon class="st2" points="3709.1,-3900 0,-190.9 0,-109.1 3790.9,-3900 		"/>
		<polygon class="st2" points="3875.8,-3900 0,-24.2 0,57.6 3957.6,-3900 		"/>
		<polygon class="st2" points="4000,-3900 3997.2,-3900 4000,-3897.2 		"/>
		<polygon class="st2" points="3542.4,-3900 0,-357.6 0,-275.8 3624.2,-3900 		"/>
		<polygon class="st2" points="3209.1,-3900 0,-690.9 0,-609.1 3290.9,-3900 		"/>
		<polygon class="st2" points="2875.8,-3900 0,-1024.2 0,-942.4 2957.6,-3900 		"/>
		<polygon class="st2" points="3042.4,-3900 0,-857.6 0,-775.8 3124.2,-3900 		"/>
		<polygon class="st2" points="3957.6,100 4000,57.6 4000,-24.2 3875.8,100 		"/>
		<polygon class="st2" points="2790.9,100 4000,-1109.1 4000,-1190.9 2709.1,100 		"/>
		<polygon class="st2" points="2957.6,100 4000,-942.4 4000,-1024.2 2875.8,100 		"/>
		<polygon class="st2" points="3790.9,100 4000,-109.1 4000,-190.9 3709.1,100 		"/>
		<polygon class="st2" points="3124.2,100 4000,-775.8 4000,-857.6 3042.4,100 		"/>
		<polygon class="st2" points="2624.2,100 4000,-1275.8 4000,-1357.6 2542.4,100 		"/>
		<polygon class="st2" points="3624.2,100 4000,-275.8 4000,-357.6 3542.4,100 		"/>
		<polygon class="st2" points="3290.9,100 4000,-609.1 4000,-690.9 3209.1,100 		"/>
		<polygon class="st2" points="3457.6,100 4000,-442.4 4000,-524.2 3375.8,100 		"/>
		<polygon points="0,-3900 0,-3857.6 42.4,-3900 		"/>
		<polygon points="124.2,-3900 0,-3775.8 0,-3690.9 209.1,-3900 		"/>
		<polygon points="290.9,-3900 0,-3609.1 0,-3524.2 375.8,-3900 		"/>
		<polygon points="457.6,-3900 0,-3442.4 0,-3357.6 542.4,-3900 		"/>
		<polygon points="624.2,-3900 0,-3275.8 0,-3190.9 709.1,-3900 		"/>
		<polygon points="790.9,-3900 0,-3109.1 0,-3024.2 875.8,-3900 		"/>
		<polygon points="957.6,-3900 0,-2942.4 0,-2857.6 1042.4,-3900 		"/>
		<polygon points="1124.2,-3900 0,-2775.8 0,-2690.9 1209.1,-3900 		"/>
		<polygon points="1290.9,-3900 0,-2609.1 0,-2524.2 1375.8,-3900 		"/>
		<polygon points="1457.6,-3900 0,-2442.4 0,-2357.6 1542.4,-3900 		"/>
		<polygon points="1624.2,-3900 0,-2275.8 0,-2190.9 1709.1,-3900 		"/>
		<polygon points="1790.9,-3900 0,-2109.1 0,-2024.2 1875.8,-3900 		"/>
		<polygon points="1957.6,-3900 0,-1942.4 0,-1857.6 2042.4,-3900 		"/>
		<polygon points="2124.2,-3900 0,-1775.8 0,-1690.9 2209.1,-3900 		"/>
		<polygon points="2290.9,-3900 0,-1609.1 0,-1524.2 2375.8,-3900 		"/>
		<polygon points="2457.6,-3900 0,-1442.4 0,-1357.6 2542.4,-3900 		"/>
		<polygon points="2624.2,-3900 0,-1275.8 0,-1190.9 2709.1,-3900 		"/>
		<polygon points="2790.9,-3900 0,-1109.1 0,-1024.2 2875.8,-3900 		"/>
		<polygon points="2957.6,-3900 0,-942.4 0,-857.6 3042.4,-3900 		"/>
		<polygon points="3124.2,-3900 0,-775.8 0,-690.9 3209.1,-3900 		"/>
		<polygon points="3290.9,-3900 0,-609.1 0,-524.2 3375.8,-3900 		"/>
		<polygon points="3457.6,-3900 0,-442.4 0,-357.6 3542.4,-3900 		"/>
		<polygon points="3624.2,-3900 0,-275.8 0,-190.9 3709.1,-3900 		"/>
		<polygon points="3790.9,-3900 0,-109.1 0,-24.2 3875.8,-3900 		"/>
		<polygon points="42.4,100 4000,-3857.6 4000,-3897.2 3997.2,-3900 3957.6,-3900 0,57.6 0,97.2 2.8,100 		"/>
		<polygon points="209.1,100 4000,-3690.9 4000,-3775.8 124.2,100 		"/>
		<polygon points="375.8,100 4000,-3524.2 4000,-3609.1 290.9,100 		"/>
		<polygon points="542.4,100 4000,-3357.6 4000,-3442.4 457.6,100 		"/>
		<polygon points="709.1,100 4000,-3190.9 4000,-3275.8 624.2,100 		"/>
		<polygon points="875.8,100 4000,-3024.2 4000,-3109.1 790.9,100 		"/>
		<polygon points="1042.4,100 4000,-2857.6 4000,-2942.4 957.6,100 		"/>
		<polygon points="1209.1,100 4000,-2690.9 4000,-2775.8 1124.2,100 		"/>
		<polygon points="1375.8,100 4000,-2524.2 4000,-2609.1 1290.9,100 		"/>
		<polygon points="1542.4,100 4000,-2357.6 4000,-2442.4 1457.6,100 		"/>
		<polygon points="1709.1,100 4000,-2190.9 4000,-2275.8 1624.2,100 		"/>
		<polygon points="1875.8,100 4000,-2024.2 4000,-2109.1 1790.9,100 		"/>
		<polygon points="2042.4,100 4000,-1857.6 4000,-1942.4 1957.6,100 		"/>
		<polygon points="2209.1,100 4000,-1690.9 4000,-1775.8 2124.2,100 		"/>
		<polygon points="2375.8,100 4000,-1524.2 4000,-1609.1 2290.9,100 		"/>
		<polygon points="2542.4,100 4000,-1357.6 4000,-1442.4 2457.6,100 		"/>
		<polygon points="2709.1,100 4000,-1190.9 4000,-1275.8 2624.2,100 		"/>
		<polygon points="2875.8,100 4000,-1024.2 4000,-1109.1 2790.9,100 		"/>
		<polygon points="3042.4,100 4000,-857.6 4000,-942.4 2957.6,100 		"/>
		<polygon points="3209.1,100 4000,-690.9 4000,-775.8 3124.2,100 		"/>
		<polygon points="3375.8,100 4000,-524.2 4000,-609.1 3290.9,100 		"/>
		<polygon points="3542.4,100 4000,-357.6 4000,-442.4 3457.6,100 		"/>
		<polygon points="3709.1,100 4000,-190.9 4000,-275.8 3624.2,100 		"/>
		<polygon points="3875.8,100 4000,-24.2 4000,-109.1 3790.9,100 		"/>
		<polygon points="4000,100 4000,57.6 3957.6,100 		"/>
	</g>
</g>
</svg>
